<?xml version="1.0" standalone="no"?>
<!DOCTYPE svg PUBLIC "-//W3C//DTD SVG 20010904//EN"
 "http://www.w3.org/TR/2001/REC-SVG-20010904/DTD/svg10.dtd">
<svg version="1.0" xmlns="http://www.w3.org/2000/svg"
 width="1104.000000pt" height="1100.000000pt" viewBox="0 0 1104.000000 1100.000000"
 preserveAspectRatio="xMidYMid meet">
<metadata>
Created by potrace 1.15, written by Peter Selinger 2001-2017
</metadata>
<g transform="translate(0.000000,1100.000000) scale(0.100000,-0.100000)"
fill="#000000" stroke="none">
<path d="M4850 10394 c-345 -27 -499 -48 -755 -99 -708 -142 -1384 -448 -1963
-887 -410 -311 -792 -714 -1081 -1143 -473 -699 -741 -1462 -823 -2340 -18
-195 -18 -1395 0 -1590 116 -1245 625 -2306 1509 -3146 570 -542 1275 -939
2041 -1149 l145 -40 1557 0 1557 0 145 40 c762 209 1467 605 2038 1144 811
767 1323 1761 1479 2871 42 294 46 396 46 1075 0 679 -4 781 -46 1075 -156
1110 -667 2103 -1478 2868 -716 678 -1599 1108 -2596 1266 -312 49 -394 54
-1080 56 -357 1 -670 1 -695 -1z m996 -244 c1326 -104 2533 -743 3371 -1785
232 -289 459 -656 608 -985 378 -832 512 -1721 394 -2630 -248 -1924 -1679
-3530 -3567 -4004 -776 -195 -1567 -195 -2341 -1 -728 183 -1410 540 -1973
1034 -1276 1118 -1860 2788 -1562 4461 234 1311 1038 2493 2176 3201 669 416
1378 645 2203 712 99 8 575 6 691 -3z"/>
<path d="M5215 9734 c-621 -48 -1140 -186 -1650 -438 -514 -252 -941 -574
-1319 -992 -408 -450 -720 -988 -912 -1570 -284 -864 -284 -1844 0 -2708 136
-412 349 -834 594 -1176 671 -936 1679 -1572 2797 -1765 283 -48 419 -59 755
-59 336 0 472 11 755 59 665 115 1318 397 1860 805 432 326 799 725 1091 1190
100 160 276 506 344 680 148 378 237 736 287 1155 13 113 17 227 17 465 0 336
-11 472 -59 755 -108 625 -374 1260 -743 1775 -730 1018 -1824 1660 -3077
1805 -133 15 -624 28 -740 19z m1619 -1688 l1316 -649 0 -124 0 -123 -2650 0
-2651 0 3 128 3 127 80 40 c44 22 544 267 1110 545 567 277 1122 551 1235 607
113 56 212 101 222 100 9 -1 608 -294 1332 -651z m113 -1086 l653 0 0 -140 0
-140 -2124 0 c-1169 0 -2127 4 -2130 8 -3 5 -2 71 1 147 l6 138 1470 -6 c809
-4 1764 -7 2124 -7z m480 -344 c2 -2 33 -2337 33 -2513 l0 -133 -316 0 -317 0
6 108 c4 59 21 652 38 1317 17 666 33 1216 35 1224 4 12 46 13 262 6 141 -4
258 -8 259 -9z m-3359 -1310 c18 -720 31 -1315 28 -1322 -4 -11 -65 -14 -320
-14 -173 0 -317 4 -320 9 -7 10 52 2610 59 2629 3 10 61 12 262 10 l258 -3 33
-1309z m1108 1299 c7 -2 13 -106 18 -322 3 -175 13 -570 21 -878 8 -308 17
-659 20 -780 3 -121 8 -318 12 -437 l6 -218 -316 0 c-174 0 -318 4 -321 8 -3
4 2 244 9 533 8 288 21 805 30 1149 8 344 18 699 21 790 l7 165 241 -3 c132
-2 246 -5 252 -7z m1110 2 c1 -1 16 -522 33 -1157 17 -635 34 -1226 38 -1312
l6 -158 -317 0 -316 0 0 48 c0 26 11 587 25 1247 14 660 25 1233 25 1274 l0
74 253 -8 c138 -4 253 -8 253 -8z m642 -2703 l982 -6 0 -184 0 -184 140 0 140
0 0 -170 0 -170 140 0 140 0 0 -145 0 -145 -2995 0 -2995 0 0 190 0 190 155 0
155 0 0 160 0 159 148 3 147 3 3 155 2 155 1428 -2 c785 -2 1869 -6 2410 -9z"/>
</g>
</svg>
